<?xml version="1.0" encoding="UTF-8"?> <svg xmlns="http://www.w3.org/2000/svg" xmlns:xlink="http://www.w3.org/1999/xlink" viewBox="0 0 89 89"> <defs> <style>.a{mask:url(#a);filter:url(#k);}.b,.d,.f{mix-blend-mode:multiply;}.b{fill:url(#c);}.c{mask:url(#d);filter:url(#n);}.d{fill:url(#f);}.e{mask:url(#g);filter:url(#q);}.f{fill:url(#i);}.g,.m{fill:#fff;}.g{stroke:#cadfea;stroke-miterlimit:10;}.h{fill:none;}.i{fill:#ffc107;}.j{fill:#0f9d58;}.k{fill:#bf360c;}.k,.l,.m,.t,.u{opacity:0.2;isolation:isolate;}.l{fill:#263238;}.n{mask:url(#j);}.o{fill:url(#l);}.p{mask:url(#m);}.q{fill:url(#o);}.r{fill:#4285f4;}.s{fill:#db4437;}.t{fill:#1a237e;}.u{fill:#3e2723;}.v{mask:url(#p);}.w{fill:url(#r);}.x{filter:url(#h);}.y{filter:url(#e);}.z{filter:url(#b);}</style> <filter id="b" x="48.37" y="-8204" width="5.57" height="32766" filterUnits="userSpaceOnUse" color-interpolation-filters="sRGB"> <feFlood flood-color="#fff" result="bg"></feFlood> <feBlend in="SourceGraphic" in2="bg"></feBlend> </filter> <mask id="a" x="48.37" y="-8204" width="5.57" height="32766" maskUnits="userSpaceOnUse"> <g class="z"></g> </mask> <radialGradient id="c" cx="53.87" cy="206.49" r="18.12" gradientTransform="translate(0 -145.28)" gradientUnits="userSpaceOnUse"> <stop offset="0" stop-color="#333"></stop> <stop offset="1" stop-color="#050505"></stop> </radialGradient> <filter id="e" x="42.52" y="-8204" width="6.96" height="32766" filterUnits="userSpaceOnUse" color-interpolation-filters="sRGB"> <feFlood flood-color="#fff" result="bg"></feFlood> <feBlend in="SourceGraphic" in2="bg"></feBlend> </filter> <mask id="d" x="42.52" y="-8204" width="6.96" height="32766" maskUnits="userSpaceOnUse"> <g class="y"></g> </mask> <radialGradient id="f" cx="53.82" cy="206.6" r="18.27" xlink:href="#c"></radialGradient> <filter id="h" x="29.61" y="-8204" width="32.75" height="32766" filterUnits="userSpaceOnUse" color-interpolation-filters="sRGB"> <feFlood flood-color="#fff" result="bg"></feFlood> <feBlend in="SourceGraphic" in2="bg"></feBlend> </filter> <mask id="g" x="29.61" y="-8204" width="32.75" height="32766" maskUnits="userSpaceOnUse"> <g class="x"></g> </mask> <radialGradient id="i" cx="29.2" cy="164.99" r="55" gradientTransform="translate(0 -145.28)" gradientUnits="userSpaceOnUse"> <stop offset="0" stop-color="#1a1a1a"></stop> <stop offset="1"></stop> </radialGradient> <filter id="k" x="48.37" y="53.64" width="5.57" height="7.73" filterUnits="userSpaceOnUse" color-interpolation-filters="sRGB"> <feFlood flood-color="#fff" result="bg"></feFlood> <feBlend in="SourceGraphic" in2="bg"></feBlend> </filter> <mask id="j" x="48.37" y="53.64" width="5.57" height="7.73" maskUnits="userSpaceOnUse"> <g class="a"> <polygon class="b" points="53.94 61.37 53.94 61.37 49.47 53.64 48.37 55.53 53.94 61.37"></polygon> </g> </mask> <radialGradient id="l" cx="53.87" cy="206.49" r="18.12" gradientTransform="translate(0 -145.28)" gradientUnits="userSpaceOnUse"> <stop offset="0" stop-color="#bf360c"></stop> <stop offset="1" stop-color="#bf360c"></stop> </radialGradient> <filter id="n" x="42.52" y="45.5" width="6.96" height="10.03" filterUnits="userSpaceOnUse" color-interpolation-filters="sRGB"> <feFlood flood-color="#fff" result="bg"></feFlood> <feBlend in="SourceGraphic" in2="bg"></feBlend> </filter> <mask id="m" x="42.52" y="45.5" width="6.96" height="10.03" maskUnits="userSpaceOnUse"> <g class="c"> <polygon class="d" points="48.37 55.53 49.47 53.64 44.76 45.5 42.52 49.39 48.37 55.53"></polygon> </g> </mask> <radialGradient id="o" cx="53.82" cy="206.6" r="18.27" gradientTransform="translate(0 -145.28)" gradientUnits="userSpaceOnUse"> <stop offset="0" stop-color="#263238"></stop> <stop offset="1" stop-color="#263238"></stop> </radialGradient> <filter id="q" x="29.61" y="19.3" width="32.75" height="52.4" filterUnits="userSpaceOnUse" color-interpolation-filters="sRGB"> <feFlood flood-color="#fff" result="bg"></feFlood> <feBlend in="SourceGraphic" in2="bg"></feBlend> </filter> <mask id="p" x="29.61" y="19.3" width="32.75" height="52.4" maskUnits="userSpaceOnUse"> <g class="e"> <path class="f" d="M61.7,43,48,19.3H29.61L44.76,45.5,29.61,71.7H48L61.7,48A4.91,4.91,0,0,0,61.7,43Z"></path> </g> </mask> <radialGradient id="r" cx="29.2" cy="164.99" r="55" gradientTransform="translate(0 -145.28)" gradientUnits="userSpaceOnUse"> <stop offset="0" stop-color="#fff"></stop> <stop offset="1" stop-color="#fff"></stop> </radialGradient> </defs> <title>gdg</title> <circle class="g" cx="44.5" cy="44.5" r="44"></circle> <path class="h" d="M61.7,43,48,19.3H29.61L44.76,45.5,29.61,71.7H48L61.7,48A4.91,4.91,0,0,0,61.7,43Z"></path> <polygon class="i" points="53.82 61.17 49.47 53.64 39.02 71.7 47.97 71.7 53.94 61.37 53.82 61.17"></polygon> <path class="h" d="M61.7,43,48,19.3H29.61L44.76,45.5,29.61,71.7H48L61.7,48A4.91,4.91,0,0,0,61.7,43Z"></path> <polygon class="j" points="44.76 45.5 49.47 53.64 39.02 71.7 29.61 71.7 44.76 45.5"></polygon> <path class="h" d="M61.7,43,48,19.3H29.61L44.76,45.5,29.61,71.7H48L61.7,48A4.91,4.91,0,0,0,61.7,43Z"></path> <polygon class="k" points="47.97 71.29 39.26 71.29 39.02 71.7 47.97 71.7 53.94 61.37 53.82 61.17 47.97 71.29"></polygon> <path class="h" d="M61.7,43,48,19.3H29.61L44.76,45.5,29.61,71.7H48L61.7,48A4.91,4.91,0,0,0,61.7,43Z"></path> <polygon class="l" points="29.84 71.29 29.61 71.7 39.02 71.7 39.26 71.29 29.84 71.29"></polygon> <path class="h" d="M61.7,43,48,19.3H29.61L44.76,45.5,29.61,71.7H48L61.7,48A4.91,4.91,0,0,0,61.7,43Z"></path> <polygon class="m" points="29.61 71.7 29.84 71.7 44.88 45.7 44.76 45.5 29.61 71.7"></polygon> <path class="h" d="M61.7,43,48,19.3H29.61L44.76,45.5,29.61,71.7H48L61.7,48A4.91,4.91,0,0,0,61.7,43Z"></path> <g class="n"> <polygon class="o" points="53.94 61.37 53.94 61.37 49.47 53.64 48.37 55.53 53.94 61.37"></polygon> </g> <path class="h" d="M61.7,43,48,19.3H29.61L44.76,45.5,29.61,71.7H48L61.7,48A4.91,4.91,0,0,0,61.7,43Z"></path> <g class="p"> <polygon class="q" points="48.37 55.53 49.47 53.64 44.76 45.5 42.52 49.39 48.37 55.53"></polygon> </g> <path class="h" d="M61.7,43,48,19.3H29.61L44.76,45.5,29.61,71.7H48L61.7,48A4.91,4.91,0,0,0,61.7,43Z"></path> <polygon class="r" points="39.02 19.3 29.61 19.3 53.94 61.37 58.65 53.24 58.65 53.23 39.02 19.3"></polygon> <path class="h" d="M61.7,43,48,19.3H29.61L44.76,45.5,29.61,71.7H48L61.7,48A4.91,4.91,0,0,0,61.7,43Z"></path> <path class="s" d="M61.7,48a4.91,4.91,0,0,0,0-4.92L48,19.3H39L58.65,53.23Z"></path> <path class="h" d="M61.7,43,48,19.3H29.61L44.76,45.5,29.61,71.7H48L61.7,48A4.91,4.91,0,0,0,61.7,43Z"></path> <polygon class="t" points="58.65 53.23 58.53 53.03 53.94 60.96 29.84 19.3 29.61 19.3 53.94 61.37 58.65 53.24 58.65 53.23"></polygon> <path class="h" d="M61.7,43,48,19.3H29.61L44.76,45.5,29.61,71.7H48L61.7,48A4.91,4.91,0,0,0,61.7,43Z"></path> <path class="m" d="M48,19.71,61.7,43.45a5.07,5.07,0,0,1,.65,2.25A5,5,0,0,0,61.7,43L48,19.3H29.61l.24.41Z"></path> <path class="h" d="M61.7,43,48,19.3H29.61L44.76,45.5,29.61,71.7H48L61.7,48A4.91,4.91,0,0,0,61.7,43Z"></path> <path class="u" d="M58.65,53.23,61.7,48a5,5,0,0,0,.65-2.66,5.07,5.07,0,0,1-.65,2.25L58.53,53Z"></path> <path class="h" d="M61.7,43,48,19.3H29.61L44.76,45.5,29.61,71.7H48L61.7,48A4.91,4.91,0,0,0,61.7,43Z"></path> <g class="v"> <path class="w" d="M61.7,43,48,19.3H29.61L44.76,45.5,29.61,71.7H48L61.7,48A4.91,4.91,0,0,0,61.7,43Z"></path> </g> </svg> 